<svg width="311" height="80" viewBox="0 0 311 80" fill="none" xmlns="http://www.w3.org/2000/svg">
<path d="M282.315 64.2149C275.706 64.2149 270.849 62.4347 267.745 58.8743C264.64 55.2855 263.088 50.2725 263.088 43.8355C263.088 39.9046 263.488 35.8887 264.285 31.7871C265.111 27.6571 266.35 23.6978 268.001 19.9098C269.683 16.1215 271.804 12.7318 274.368 9.74106C276.932 6.7506 279.966 4.3864 283.468 2.64903C286.972 0.882918 290.959 0 295.429 0C298.478 0 301.354 0.384549 304.061 1.15365C306.766 1.89401 308.946 2.8482 310.597 4.01622L304.36 16.3635C302.794 15.2242 301.129 14.3413 299.362 13.7145C297.624 13.0879 295.829 12.7746 293.979 12.7746C291.615 12.7746 289.463 13.7288 287.527 15.6372C285.617 17.5171 283.98 19.9667 282.614 22.9859C281.245 25.9766 280.191 29.195 279.453 32.6416C278.74 36.0594 278.383 39.2925 278.383 42.3401C278.383 44.3339 278.568 46.0002 278.94 47.3387C279.338 48.6774 279.921 49.6888 280.69 50.3723C281.459 51.0273 282.414 51.3549 283.552 51.3549C284.124 51.3549 284.721 51.3121 285.347 51.2267C286.003 51.1414 286.657 51.0132 287.313 50.8422L289.747 39.2212H283.724L286.245 26.7883H306.752L299.661 60.2843C296.328 61.5946 293.125 62.5773 290.049 63.2323C286.972 63.8875 284.394 64.2149 282.315 64.2149Z" fill="#118CFA"/>
<path d="M206.35 64.5141L219.552 2.05093H235.745L242.196 37.7258H242.495C242.723 36.1876 242.951 34.6782 243.179 33.1969C243.435 31.6874 243.677 30.2633 243.905 28.9246C244.161 27.5858 244.389 26.4181 244.589 25.4211L249.545 2.05093H263.302L250.1 64.5141H233.822L227.328 27.6856H227.157C226.957 29.0528 226.758 30.363 226.559 31.6161C226.388 32.8695 226.217 34.0516 226.046 35.1624C225.875 36.2733 225.704 37.3128 225.533 38.2814C225.363 39.2212 225.206 40.0613 225.063 40.8019L219.979 64.5141H206.35Z" fill="#118CFA"/>
<path d="M138.674 64.5141L151.876 2.05093H165.975C172.413 2.05093 177.112 3.33247 180.075 5.89613C183.037 8.43106 184.518 12.0768 184.518 16.8334C184.518 20.3938 184.034 23.584 183.065 26.4037C182.125 29.2238 180.772 31.6446 179.006 33.6671C177.24 35.6608 175.161 37.199 172.768 38.2814L179.434 64.5141H163.241L159.054 41.3147H158.071L153.286 64.5141H138.674ZM160.72 29.5227H161.959C163.184 29.5227 164.238 29.2094 165.121 28.5828C166.004 27.9276 166.73 27.0731 167.3 26.0192C167.87 24.9655 168.297 23.8119 168.581 22.5585C168.866 21.3054 169.009 20.0664 169.009 18.8415C169.009 17.332 168.667 16.1927 167.983 15.4237C167.3 14.6546 166.246 14.27 164.822 14.27H163.882L160.72 29.5227Z" fill="#118CFA"/>
<path d="M182.424 64.5141L195.712 2.05093H210.323L197.036 64.5141H182.424Z" fill="#FFC200"/>
<path d="M99.1643 37.2821L100.88 28.3839L13.7252 19.4861H102.939L104.655 10.5882L0 1.69032H106.713H114.605H123.612C126.472 1.69032 129.16 2.10389 131.676 2.93102C134.221 3.75787 136.294 5.15549 137.895 7.12331C139.496 9.0624 140.297 11.7433 140.297 15.1656C140.297 17.5895 139.882 19.8853 139.053 22.0528C138.253 24.1917 137.023 26.0741 135.365 27.6996C133.706 29.3252 131.605 30.58 129.059 31.464V31.8063C130.947 32.6334 132.462 34.0451 133.606 36.0414C134.75 38.0092 135.322 40.3906 135.322 43.1853C135.322 46.7502 134.492 50.1441 132.834 53.3667C131.204 56.5608 128.759 59.1701 125.5 61.1951C122.24 63.2199 118.194 64.2324 113.361 64.2324H103.346H98.3389H93.3313L41.1755 55.0778H95.3901L97.1055 46.18L27.4503 37.2821H99.1643ZM110.616 51.8693H113.276C114.82 51.8693 116.106 51.4273 117.136 50.5433C118.165 49.6308 118.923 48.4473 119.409 46.9927C119.924 45.5382 120.181 43.984 120.181 42.3297C120.181 40.7898 119.852 39.6347 119.195 38.8648C118.566 38.0661 117.607 37.6669 116.321 37.6669H113.619L110.616 51.8693ZM116.064 26.0313H118.423C119.738 26.0313 120.867 25.6177 121.811 24.7906C122.755 23.9637 123.484 22.9084 123.998 21.6252C124.513 20.3132 124.771 18.9728 124.771 17.6039C124.771 16.3491 124.441 15.3938 123.784 14.7377C123.126 14.0818 122.14 13.7539 120.824 13.7539H118.723L116.064 26.0313Z" fill="#118CFA"/>
<path d="M97.8541 71.8828V77.6493H98.6463V80H97.9287V78.3184H93.4564V80H92.7391V77.6493H93.2321C93.4522 77.2738 93.6575 76.8526 93.8483 76.3861C94.0418 75.9165 94.2137 75.4263 94.3633 74.9158C94.516 74.4022 94.6391 73.8872 94.7332 73.3708C94.8298 72.8541 94.8915 72.3583 94.918 71.8828H97.8541ZM97.11 72.5564H95.5783C95.5518 72.9204 95.4932 73.3266 95.4022 73.7757C95.3112 74.2216 95.1938 74.6794 95.0501 75.149C94.9092 75.6187 94.7506 76.0691 94.5746 76.5005C94.4016 76.9318 94.2182 77.3149 94.0243 77.6493H97.11V72.5564ZM105.591 75.8973C105.591 76.2934 105.539 76.6472 105.437 76.9583C105.334 77.2693 105.186 77.5318 104.992 77.7462C104.798 77.9603 104.564 78.1246 104.288 78.2392C104.015 78.3508 103.705 78.4063 103.359 78.4063C103.036 78.4063 102.74 78.3508 102.47 78.2392C102.203 78.1246 101.971 77.9603 101.774 77.7462C101.581 77.5318 101.429 77.2693 101.321 76.9583C101.215 76.6472 101.162 76.2934 101.162 75.8973C101.162 75.3691 101.252 74.9203 101.431 74.5504C101.61 74.1777 101.865 73.8945 102.197 73.7007C102.531 73.5041 102.929 73.4058 103.39 73.4058C103.83 73.4058 104.214 73.5041 104.543 73.7007C104.875 73.8974 105.131 74.1822 105.313 74.5549C105.498 74.9245 105.591 75.3722 105.591 75.8973ZM101.92 75.8973C101.92 76.2847 101.971 76.6208 102.074 76.9053C102.176 77.1901 102.335 77.4101 102.549 77.5657C102.763 77.7212 103.039 77.7989 103.377 77.7989C103.711 77.7989 103.985 77.7212 104.2 77.5657C104.417 77.4101 104.577 77.1901 104.68 76.9053C104.782 76.6208 104.834 76.2847 104.834 75.8973C104.834 75.513 104.782 75.1814 104.68 74.9025C104.577 74.6208 104.418 74.4036 104.204 74.2509C103.99 74.0985 103.713 74.0222 103.372 74.0222C102.87 74.0222 102.502 74.1881 102.267 74.5197C102.035 74.8513 101.92 75.3105 101.92 75.8973ZM110.59 78.4063C110.155 78.4063 109.772 78.317 109.441 78.1378C109.109 77.9589 108.851 77.6859 108.666 77.3191C108.481 76.9523 108.388 76.49 108.388 75.9325C108.388 75.3485 108.485 74.8718 108.679 74.5019C108.876 74.1292 109.146 73.8534 109.489 73.6745C109.832 73.4953 110.223 73.4058 110.66 73.4058C110.901 73.4058 111.132 73.4308 111.356 73.4807C111.581 73.5277 111.766 73.5878 111.91 73.6613L111.69 74.2732C111.543 74.2143 111.373 74.1616 111.179 74.1146C110.989 74.0675 110.81 74.0441 110.642 74.0441C110.308 74.0441 110.029 74.116 109.806 74.2599C109.586 74.4036 109.42 74.6149 109.309 74.8938C109.2 75.1724 109.146 75.5159 109.146 75.9238C109.146 76.314 109.198 76.6472 109.304 76.923C109.413 77.1988 109.573 77.4101 109.784 77.5569C109.998 77.7006 110.265 77.7724 110.585 77.7724C110.841 77.7724 111.071 77.7462 111.276 77.6933C111.482 77.6375 111.668 77.573 111.835 77.4997V78.1511C111.674 78.2333 111.493 78.2964 111.294 78.3404C111.097 78.3843 110.863 78.4063 110.59 78.4063ZM118.071 74.1146H116.482V78.3184H115.76V74.1146H114.193V73.4939H118.071V74.1146ZM122.634 73.4148C123.209 73.4148 123.636 73.5438 123.915 73.8021C124.194 74.0602 124.333 74.4726 124.333 75.0389V78.3184H123.801L123.66 77.6054H123.624C123.49 77.7814 123.349 77.9296 123.202 78.0499C123.055 78.1674 122.885 78.2567 122.691 78.3184C122.5 78.377 122.266 78.4063 121.987 78.4063C121.694 78.4063 121.432 78.355 121.203 78.2525C120.977 78.1497 120.798 77.9942 120.666 77.7857C120.537 77.5775 120.473 77.3132 120.473 76.9935C120.473 76.5123 120.663 76.1424 121.045 75.8841C121.426 75.626 122.007 75.4851 122.788 75.4615L123.62 75.4263V75.1316C123.62 74.7146 123.53 74.4228 123.351 74.2554C123.173 74.0881 122.92 74.0047 122.594 74.0047C122.342 74.0047 122.101 74.0413 121.872 74.1146C121.643 74.1881 121.426 74.2746 121.221 74.3743L120.997 73.8196C121.214 73.708 121.463 73.6128 121.745 73.5337C122.027 73.4542 122.323 73.4148 122.634 73.4148ZM123.611 75.9413L122.876 75.9722C122.274 75.9956 121.85 76.0939 121.604 76.2672C121.357 76.4402 121.234 76.6853 121.234 77.0022C121.234 77.278 121.318 77.482 121.485 77.6141C121.652 77.7462 121.874 77.8122 122.15 77.8122C122.578 77.8122 122.929 77.6933 123.202 77.4558C123.475 77.218 123.611 76.8613 123.611 76.3861V75.9413ZM131.476 74.7045C131.476 75.0068 131.388 75.2429 131.212 75.4133C131.035 75.5804 130.808 75.6933 130.529 75.7522V75.7874C130.831 75.8283 131.091 75.937 131.308 76.1131C131.528 76.2861 131.639 76.5517 131.639 76.9098C131.639 77.1856 131.572 77.4293 131.44 77.6406C131.308 77.8519 131.101 78.0175 130.82 78.1378C130.538 78.2581 130.171 78.3184 129.719 78.3184H127.642V73.4939H129.702C130.048 73.4939 130.353 73.5337 130.617 73.6128C130.884 73.6892 131.094 73.8154 131.247 73.9915C131.399 74.1675 131.476 74.405 131.476 74.7045ZM130.877 76.9098C130.877 76.6253 130.768 76.4196 130.551 76.2934C130.337 76.1675 130.024 76.1044 129.614 76.1044H128.377V77.7243H129.631C130.036 77.7243 130.344 77.6626 130.556 77.5392C130.77 77.413 130.877 77.2034 130.877 76.9098ZM130.732 74.7882C130.732 74.5591 130.648 74.389 130.481 74.2774C130.313 74.163 130.039 74.1058 129.658 74.1058H128.377V75.4925H129.53C129.926 75.4925 130.225 75.4353 130.428 75.3206C130.631 75.2062 130.732 75.0288 130.732 74.7882ZM137.434 73.4939H138.24L136.157 75.8226L138.407 78.3184H137.549L135.356 75.8708V78.3184H134.621V73.4939H135.356V75.8359L137.434 73.4939ZM142.886 73.4148C143.461 73.4148 143.888 73.5438 144.167 73.8021C144.446 74.0602 144.585 74.4726 144.585 75.0389V78.3184H144.053L143.912 77.6054H143.877C143.742 77.7814 143.601 77.9296 143.454 78.0499C143.307 78.1674 143.137 78.2567 142.943 78.3184C142.753 78.377 142.518 78.4063 142.239 78.4063C141.946 78.4063 141.684 78.355 141.456 78.2525C141.229 78.1497 141.051 77.9942 140.918 77.7857C140.789 77.5775 140.725 77.3132 140.725 76.9935C140.725 76.5123 140.916 76.1424 141.297 75.8841C141.679 75.626 142.26 75.4851 143.04 75.4615L143.872 75.4263V75.1316C143.872 74.7146 143.783 74.4228 143.604 74.2554C143.425 74.0881 143.172 74.0047 142.847 74.0047C142.594 74.0047 142.354 74.0413 142.125 74.1146C141.896 74.1881 141.679 74.2746 141.473 74.3743L141.249 73.8196C141.466 73.708 141.715 73.6128 141.997 73.5337C142.279 73.4542 142.575 73.4148 142.886 73.4148ZM143.863 75.9413L143.128 75.9722C142.527 75.9956 142.103 76.0939 141.856 76.2672C141.61 76.4402 141.486 76.6853 141.486 77.0022C141.486 77.278 141.57 77.482 141.737 77.6141C141.905 77.7462 142.126 77.8122 142.402 77.8122C142.831 77.8122 143.181 77.6933 143.454 77.4558C143.727 77.218 143.863 76.8613 143.863 76.3861V75.9413ZM159.46 71.8828L157.739 78.3184H156.986L155.71 73.987C155.672 73.8638 155.635 73.7404 155.6 73.6171C155.567 73.4911 155.537 73.3722 155.507 73.2607C155.478 73.1463 155.453 73.0463 155.432 72.9612C155.415 72.8733 155.402 72.8074 155.393 72.7632C155.387 72.8074 155.375 72.8719 155.358 72.957C155.343 73.0421 155.322 73.1404 155.296 73.2519C155.272 73.3632 155.243 73.4821 155.208 73.6083C155.176 73.7345 155.141 73.8621 155.102 73.9915L153.861 78.3184H153.108L151.4 71.8828H152.179L153.214 75.9193C153.249 76.0545 153.282 76.188 153.311 76.3199C153.343 76.4492 153.371 76.5751 153.395 76.6985C153.421 76.8219 153.444 76.9422 153.465 77.0594C153.485 77.1769 153.504 77.2913 153.522 77.4028C153.537 77.2884 153.556 77.1696 153.579 77.0462C153.603 76.9199 153.628 76.7923 153.654 76.6633C153.684 76.5343 153.714 76.4036 153.747 76.2714C153.782 76.1396 153.818 76.0075 153.857 75.8753L155.014 71.8828H155.785L156.991 75.9063C157.032 76.0441 157.07 76.1804 157.105 76.3157C157.141 76.4506 157.171 76.5827 157.198 76.7118C157.227 76.838 157.252 76.9597 157.272 77.0771C157.296 77.1915 157.317 77.3 157.334 77.4028C157.355 77.2591 157.379 77.1079 157.409 76.9495C157.438 76.7909 157.472 76.6253 157.51 76.452C157.551 76.2788 157.595 76.0999 157.642 75.915L158.677 71.8828H159.46ZM162.28 71.8828H164.102C164.906 71.8828 165.511 72.0031 165.916 72.2439C166.321 72.4845 166.524 72.8939 166.524 73.472C166.524 73.7213 166.475 73.9458 166.378 74.1456C166.284 74.3419 166.146 74.505 165.964 74.6341C165.783 74.7631 165.558 74.8527 165.291 74.9025V74.9465C165.573 74.9907 165.822 75.0713 166.039 75.1888C166.256 75.306 166.427 75.4705 166.55 75.6818C166.673 75.8931 166.735 76.1616 166.735 76.4872C166.735 76.8833 166.642 77.218 166.457 77.4907C166.276 77.7637 166.017 77.9708 165.683 78.1116C165.348 78.2494 164.952 78.3184 164.494 78.3184H162.28V71.8828ZM163.029 74.6428H164.261C164.821 74.6428 165.209 74.5504 165.423 74.3656C165.64 74.1805 165.749 73.9106 165.749 73.5556C165.749 73.1888 165.619 72.9246 165.361 72.7632C165.106 72.6017 164.698 72.5212 164.138 72.5212H163.029V74.6428ZM163.029 75.2724V77.68H164.367C164.939 77.68 165.344 77.5687 165.581 77.3456C165.819 77.1197 165.938 76.816 165.938 76.4343C165.938 76.1909 165.884 75.9824 165.775 75.8094C165.669 75.6361 165.496 75.504 165.256 75.4133C165.018 75.3192 164.7 75.2724 164.3 75.2724H163.029ZM170.638 77.2707L170.695 77.3721C170.642 77.5862 170.574 77.8153 170.492 78.0587C170.413 78.3024 170.325 78.5458 170.228 78.7894C170.134 79.036 170.039 79.2664 169.942 79.4805H169.396C169.458 79.2458 169.518 78.9976 169.577 78.7365C169.635 78.4784 169.688 78.2229 169.735 77.9708C169.785 77.7152 169.824 77.482 169.854 77.2707H170.638ZM183.774 75.0919C183.774 75.5877 183.71 76.0396 183.584 76.4475C183.458 76.8526 183.27 77.2017 183.021 77.4952C182.774 77.7857 182.468 78.0102 182.101 78.1688C181.734 78.3271 181.309 78.4063 180.824 78.4063C180.325 78.4063 179.89 78.3271 179.517 78.1688C179.147 78.0102 178.839 77.7843 178.592 77.4907C178.349 77.1974 178.166 76.8467 178.042 76.4388C177.922 76.0308 177.862 75.579 177.862 75.0831C177.862 74.4256 177.97 73.8489 178.188 73.3531C178.405 72.8573 178.733 72.4713 179.174 72.1955C179.617 71.9194 180.172 71.7816 180.837 71.7816C181.474 71.7816 182.01 71.918 182.444 72.191C182.881 72.464 183.212 72.8482 183.435 73.3443C183.661 73.8374 183.774 74.4197 183.774 75.0919ZM178.65 75.0919C178.65 75.6376 178.728 76.11 178.883 76.5092C179.039 76.9084 179.276 77.2166 179.596 77.4335C179.919 77.6507 180.328 77.7595 180.824 77.7595C181.323 77.7595 181.731 77.6507 182.048 77.4335C182.368 77.2166 182.604 76.9084 182.757 76.5092C182.909 76.11 182.986 75.6376 182.986 75.0919C182.986 74.2613 182.811 73.6128 182.462 73.1463C182.116 72.6767 181.574 72.442 180.837 72.442C180.339 72.442 179.928 72.549 179.605 72.7632C179.282 72.9775 179.042 73.2827 178.883 73.6787C178.728 74.072 178.65 74.5431 178.65 75.0919ZM190.943 78.3184H186.475V77.755L189.939 72.5519H186.593V71.8828H190.85V72.4462L187.381 77.6493H190.943V78.3184ZM199.555 75.0919C199.555 75.5877 199.492 76.0396 199.366 76.4475C199.24 76.8526 199.052 77.2017 198.803 77.4952C198.556 77.7857 198.249 78.0102 197.882 78.1688C197.516 78.3271 197.09 78.4063 196.606 78.4063C196.107 78.4063 195.671 78.3271 195.299 78.1688C194.929 78.0102 194.621 77.7843 194.374 77.4907C194.131 77.1974 193.947 76.8467 193.824 76.4388C193.704 76.0308 193.643 75.579 193.643 75.0831C193.643 74.4256 193.752 73.8489 193.969 73.3531C194.186 72.8573 194.515 72.4713 194.955 72.1955C195.399 71.9194 195.953 71.7816 196.619 71.7816C197.256 71.7816 197.791 71.918 198.226 72.191C198.663 72.464 198.993 72.8482 199.216 73.3443C199.442 73.8374 199.555 74.4197 199.555 75.0919ZM194.431 75.0919C194.431 75.6376 194.509 76.11 194.665 76.5092C194.82 76.9084 195.058 77.2166 195.378 77.4335C195.701 77.6507 196.11 77.7595 196.606 77.7595C197.105 77.7595 197.513 77.6507 197.83 77.4335C198.15 77.2166 198.386 76.9084 198.538 76.5092C198.691 76.11 198.767 75.6376 198.767 75.0919C198.767 74.2613 198.593 73.6128 198.244 73.1463C197.897 72.6767 197.356 72.442 196.619 72.442C196.12 72.442 195.71 72.549 195.387 72.7632C195.064 72.9775 194.823 73.2827 194.665 73.6787C194.509 74.072 194.431 74.5431 194.431 75.0919ZM207.825 78.3184H206.962L203.453 72.9128H203.418C203.427 73.0567 203.437 73.221 203.449 73.4058C203.461 73.5878 203.47 73.783 203.475 73.9915C203.484 74.1968 203.489 74.4067 203.489 74.6208V78.3184H202.793V71.8828H203.652L207.147 77.2707H207.178C207.172 77.1681 207.164 77.0228 207.156 76.8349C207.147 76.6441 207.138 76.4402 207.129 76.223C207.123 76.0029 207.12 75.799 207.12 75.6114V71.8828H207.825V78.3184ZM212.11 77.2707L212.167 77.3721C212.115 77.5862 212.047 77.8153 211.965 78.0587C211.886 78.3024 211.798 78.5458 211.701 78.7894C211.607 79.036 211.512 79.2664 211.415 79.4805H210.869C210.931 79.2458 210.991 78.9976 211.05 78.7365C211.108 78.4784 211.161 78.2229 211.208 77.9708C211.258 77.7152 211.297 77.482 211.327 77.2707H212.11ZM223.173 78.3184H222.429V74.1058H220.963C220.905 74.8659 220.83 75.5173 220.739 76.0601C220.651 76.6002 220.539 77.0419 220.404 77.3853C220.272 77.7257 220.111 77.9764 219.92 78.1378C219.732 78.2964 219.508 78.3756 219.247 78.3756C219.167 78.3756 219.093 78.3714 219.022 78.3624C218.952 78.3536 218.892 78.339 218.842 78.3184V77.7637C218.88 77.7755 218.919 77.7843 218.961 77.7902C219.004 77.7961 219.05 77.7989 219.097 77.7989C219.229 77.7989 219.349 77.7448 219.458 77.6361C219.569 77.5245 219.669 77.3575 219.757 77.1343C219.848 76.9112 219.929 76.6295 220 76.2892C220.07 75.9458 220.131 75.5423 220.184 75.0786C220.24 74.6121 220.289 74.0839 220.329 73.4939H223.173V78.3184ZM227.212 73.4939V76.5269C227.212 76.5855 227.211 76.6619 227.208 76.7557C227.205 76.8467 227.201 76.945 227.195 77.0507C227.189 77.1535 227.183 77.2532 227.177 77.3499C227.174 77.444 227.17 77.5217 227.164 77.5834L229.796 73.4939H230.694V78.3184H230.012V75.3603C230.012 75.2665 230.013 75.1462 230.016 74.9995C230.019 74.8527 230.024 74.709 230.03 74.5681C230.035 74.4242 230.04 74.3126 230.043 74.2335L227.419 78.3184H226.517V73.4939H227.212ZM234.689 73.4939V75.2282C234.689 75.5305 234.772 75.7536 234.936 75.8973C235.103 76.0413 235.345 76.1131 235.662 76.1131C235.967 76.1131 236.245 76.0661 236.494 75.9722C236.744 75.8784 236.996 75.7505 237.251 75.5891V73.4939H237.982V78.3184H237.251V76.157C236.981 76.3303 236.716 76.4667 236.455 76.5664C236.193 76.6661 235.881 76.716 235.517 76.716C235.021 76.716 234.637 76.5869 234.364 76.3289C234.094 76.0706 233.958 75.7212 233.958 75.2812V73.4939H234.689ZM242.065 73.4939V75.5187H244.755V73.4939H245.485V78.3184H244.755V76.1396H242.065V78.3184H241.33V73.4939H242.065ZM248.838 78.3184V73.4939H249.573V75.4837H250.894C251.304 75.4837 251.642 75.535 251.906 75.6376C252.173 75.7404 252.371 75.8931 252.5 76.0954C252.629 76.2979 252.694 76.5489 252.694 76.8481C252.694 77.1476 252.629 77.4073 252.5 77.6273C252.374 77.8474 252.175 78.0175 251.902 78.1378C251.632 78.2581 251.28 78.3184 250.845 78.3184H248.838ZM249.573 77.7243H250.775C251.139 77.7243 251.429 77.6595 251.646 77.5304C251.864 77.4014 251.972 77.1856 251.972 76.8833C251.972 76.587 251.871 76.3816 251.668 76.2672C251.466 76.1497 251.175 76.0911 250.797 76.0911H249.573V77.7243ZM253.491 78.3184V73.4939H254.222V78.3184H253.491ZM259.428 73.4058C259.837 73.4058 260.189 73.4968 260.485 73.6787C260.778 73.8607 261 74.116 261.158 74.4447C261.313 74.7704 261.389 75.1519 261.389 75.5891V76.0427H258.059C258.068 76.6089 258.208 77.0405 258.482 77.3369C258.752 77.6333 259.138 77.7814 259.634 77.7814C259.938 77.7814 260.209 77.7536 260.443 77.6978C260.679 77.642 260.921 77.5597 261.175 77.4513V78.0939C260.93 78.2026 260.688 78.2818 260.448 78.3316C260.212 78.3815 259.93 78.4063 259.603 78.4063C259.138 78.4063 258.735 78.3125 258.389 78.1246C258.045 77.9339 257.777 77.6552 257.586 77.2884C257.397 76.9216 257.301 76.4726 257.301 75.9413C257.301 75.422 257.389 74.973 257.561 74.5943C257.738 74.2129 257.983 73.9193 258.301 73.714C258.62 73.5086 258.994 73.4058 259.428 73.4058ZM259.417 74.0047C259.028 74.0047 258.716 74.1323 258.485 74.3876C258.254 74.6428 258.116 74.9995 258.07 75.4573H260.626C260.623 75.1696 260.575 74.9172 260.488 74.7C260.403 74.48 260.273 74.3098 260.096 74.1895C259.921 74.0661 259.693 74.0047 259.417 74.0047ZM272.413 74.7045C272.413 75.0068 272.326 75.2429 272.151 75.4133C271.973 75.5804 271.745 75.6933 271.466 75.7522V75.7874C271.771 75.8283 272.03 75.937 272.247 76.1131C272.466 76.2861 272.576 76.5517 272.576 76.9098C272.576 77.1856 272.511 77.4293 272.379 77.6406C272.247 77.8519 272.038 78.0175 271.756 78.1378C271.475 78.2581 271.108 78.3184 270.658 78.3184H268.579V73.4939H270.641C270.985 73.4939 271.292 73.5337 271.556 73.6128C271.821 73.6892 272.033 73.8154 272.185 73.9915C272.337 74.1675 272.413 74.405 272.413 74.7045ZM271.816 76.9098C271.816 76.6253 271.706 76.4196 271.489 76.2934C271.275 76.1675 270.962 76.1044 270.551 76.1044H269.314V77.7243H270.57C270.973 77.7243 271.283 77.6626 271.494 77.5392C271.709 77.413 271.816 77.2034 271.816 76.9098ZM271.669 74.7882C271.669 74.5591 271.587 74.389 271.418 74.2774C271.252 74.163 270.976 74.1058 270.596 74.1058H269.314V75.4925H270.469C270.863 75.4925 271.165 75.4353 271.365 75.3206C271.568 75.2062 271.669 75.0288 271.669 74.7882ZM277.416 73.4058C277.828 73.4058 278.18 73.4968 278.473 73.6787C278.766 73.8607 278.991 74.116 279.146 74.4447C279.301 74.7704 279.38 75.1519 279.38 75.5891V76.0427H276.047C276.055 76.6089 276.196 77.0405 276.47 77.3369C276.743 77.6333 277.129 77.7814 277.625 77.7814C277.929 77.7814 278.199 77.7536 278.433 77.6978C278.667 77.642 278.912 77.5597 279.163 77.4513V78.0939C278.921 78.2026 278.678 78.2818 278.439 78.3316C278.199 78.3815 277.918 78.4063 277.594 78.4063C277.129 78.4063 276.723 78.3125 276.377 78.1246C276.036 77.9339 275.768 77.6552 275.577 77.2884C275.385 76.9216 275.289 76.4726 275.289 75.9413C275.289 75.422 275.377 74.973 275.551 74.5943C275.726 74.2129 275.974 73.9193 276.289 73.714C276.61 73.5086 276.985 73.4058 277.416 73.4058ZM277.408 74.0047C277.019 74.0047 276.706 74.1323 276.475 74.3876C276.244 74.6428 276.106 74.9995 276.061 75.4573H278.614C278.611 75.1696 278.566 74.9172 278.478 74.7C278.394 74.48 278.261 74.3098 278.087 74.1895C277.909 74.0661 277.684 74.0047 277.408 74.0047ZM288.891 73.4939V77.7065H289.581V79.978H288.846V78.3184H282.425V73.4939H283.155V77.6978H285.29V73.4939H286.026V77.6978H288.164V73.4939H288.891ZM293.012 73.4939V76.5269C293.012 76.5855 293.012 76.6619 293.009 76.7557C293.007 76.8467 293.001 76.945 292.995 77.0507C292.99 77.1535 292.984 77.2532 292.978 77.3499C292.976 77.444 292.97 77.5217 292.964 77.5834L295.598 73.4939H296.494V78.3184H295.813V75.3603C295.813 75.2665 295.815 75.1462 295.818 74.9995C295.821 74.8527 295.824 74.709 295.829 74.5681C295.838 74.4242 295.841 74.3126 295.844 74.2335L293.221 78.3184H292.319V73.4939H293.012Z" fill="#FF4F00"/>
</svg>
